# xmcd
#
# Track frame offsets: 
#        150
#        18567
#        34927
#        57897
#        77133
#        90094
#        104812
#        126969
#        149841
#        166097
#        181281
#        199478
#
# Disc length: 2903 seconds
#
# Revision: 0
# Processed by: cddbd v1.5.2PL0 Copyright (c) Steve Scherf et al.
# Submitted via: ExactAudioCopy v1.3
#
DISCID=a90b550c
DTITLE=Toronto Cannon and The Cannonball Express - My Woman
DYEAR=2006
DGENRE=Blues
TTITLE0=My Woman
TTITLE1=She's Gone
TTITLE2=Toronto Shuffle
TTITLE3=Earnestine
TTITLE4=Cannonball (Just Messin' Around)
TTITLE5=Best Love I Never Had
TTITLE6=Ain't No Stranger (Revisited)
TTITLE7=No Good Man
TTITLE8=Don't Change Me
TTITLE9=Back To The Weekend
TTITLE10=Not Born To Lose
TTITLE11=Young A Little While (But Old A Long Time)
EXTD=
EXTT0=
EXTT1=
EXTT2=
EXTT3=
EXTT4=
EXTT5=
EXTT6=
EXTT7=
EXTT8=
EXTT9=
EXTT10=
EXTT11=
PLAYORDER=
